<svg width="26" height="26" viewBox="0 0 26 26" fill="none" xmlns="http://www.w3.org/2000/svg">
<g id="report-columns">
<path id="Vector" d="M3.25 8.01667V3.9C3.25 3.54102 3.54102 3.25 3.9 3.25H10.1833C10.5423 3.25 10.8333 3.54102 10.8333 3.9V8.01667C10.8333 8.37565 10.5423 8.66667 10.1833 8.66667H3.9C3.54102 8.66667 3.25 8.37565 3.25 8.01667Z" stroke="white" stroke-width="1.5"/>
<path id="Vector_2" d="M15.1667 22.1V17.9833C15.1667 17.6243 15.4577 17.3333 15.8167 17.3333H22.1C22.459 17.3333 22.75 17.6243 22.75 17.9833V22.1C22.75 22.459 22.459 22.75 22.1 22.75H15.8167C15.4577 22.75 15.1667 22.459 15.1667 22.1Z" stroke="white" stroke-width="1.5"/>
<path id="Vector_3" d="M15.1667 13.4333V3.9C15.1667 3.54102 15.4577 3.25 15.8167 3.25H22.1C22.459 3.25 22.75 3.54102 22.75 3.9V13.4333C22.75 13.7923 22.459 14.0833 22.1 14.0833H15.8167C15.4577 14.0833 15.1667 13.7923 15.1667 13.4333Z" stroke="white" stroke-width="1.5"/>
<path id="Vector_4" d="M3.25 22.1V12.5667C3.25 12.2076 3.54102 11.9167 3.9 11.9167H10.1833C10.5423 11.9167 10.8333 12.2076 10.8333 12.5667V22.1C10.8333 22.459 10.5423 22.75 10.1833 22.75H3.9C3.54102 22.75 3.25 22.459 3.25 22.1Z" stroke="white" stroke-width="1.5"/>
</g>
</svg>
