<svg width="26" height="26" viewBox="0 0 26 26" fill="none" xmlns="http://www.w3.org/2000/svg">
<g id="&#229;&#133;&#172;&#229;&#145;&#138;">
<path id="Vector" d="M19.5 9.10002C20.1304 14.9235 22.75 19.5 22.75 19.5H3.25C3.25 19.5 6.5 17.1889 6.5 9.10002C6.5 7.26118 7.18482 5.49767 8.40381 4.19742C9.62279 2.89716 11.2761 2.16669 13 2.16669C17.875 2.16669 17.3333 5.41669 17.3333 5.41669" stroke="white" stroke-width="1.5" stroke-linecap="round" stroke-linejoin="round"/>
<path id="Vector_2" d="M20.5833 8.66669C22.3783 8.66669 23.8333 7.21161 23.8333 5.41669C23.8333 3.62177 22.3783 2.16669 20.5833 2.16669C18.7883 2.16669 17.3333 3.62177 17.3333 5.41669C17.3333 7.21161 18.7883 8.66669 20.5833 8.66669Z" stroke="white" stroke-width="1.5" stroke-linecap="round" stroke-linejoin="round"/>
<path id="Vector_3" d="M14.8742 22.75C14.6837 23.0784 14.4104 23.3509 14.0814 23.5403C13.7525 23.7298 13.3796 23.8295 13 23.8295C12.6204 23.8295 12.2475 23.7298 11.9186 23.5403C11.5897 23.3509 11.3163 23.0784 11.1259 22.75" stroke="white" stroke-width="1.5" stroke-linecap="round" stroke-linejoin="round"/>
</g>
</svg>
