    <svg
      width="120"
      height="37"
      viewBox="0 0 120 37"
      fill="none"
      xmlns="http://www.w3.org/2000/svg"
      className="flex self-start"
    >
      <g id="&#231;&#153;&#189; &#230;&#169;&#171;">
        <g id="&#229;&#156;&#150;&#229;&#177;&#164;_1-2">
          <path
            id="Vector"
            d="M23.621 22.4125H31.06L32.4708 17.1539H22.2957V13.9474H31.1455L32.5563 8.68884H19.3457H6.09235L7.50319 13.9474H16.3103V17.1539H6.17785L7.5887 22.4125H15.0277L4.98077 35.5376H12.2915L19.3457 26.816L26.3572 35.5376H33.6679L23.621 22.4125Z"
            fill="white"
          />
          <path
            id="Vector_2"
            d="M34.1381 0.394771C42.2612 1.16432 50.2987 2.66067 58.1224 4.92657C60.6876 5.65337 63.0818 6.42292 65.4332 7.19247C65.7752 7.32072 66.1172 7.44898 66.4592 7.57724C69.0244 8.47505 71.5041 9.41561 73.8127 10.3989C74.5823 10.6982 75.3518 11.0402 76.0786 11.3822C76.5489 11.596 77.0619 11.8098 77.5322 12.0235C77.6605 12.0663 77.8315 12.1518 77.9597 12.1945C79.1141 12.7503 80.2684 13.2634 81.38 13.8192C82.4915 14.3749 83.6031 14.9735 84.6719 15.5293C86.04 16.2561 87.3654 17.0256 88.6479 17.7952C92.1964 19.89 95.4884 22.0704 98.5238 24.2936C100.448 25.7044 102.329 27.0725 104.082 28.4834C105.322 29.4667 106.519 30.4072 107.673 31.3906C108.271 31.8608 108.87 32.3739 109.426 32.8442C110.837 33.9985 112.205 35.1528 113.573 36.3071C113.145 35.9651 112.718 35.6231 112.205 35.2811C112.034 35.1528 111.82 34.9818 111.606 34.8535C111.392 34.7253 111.179 34.5543 110.965 34.3833L110.922 34.3405C110.879 34.3405 110.837 34.2977 110.794 34.255C110.751 34.2122 110.708 34.2122 110.666 34.1695C110.409 33.9557 110.11 33.7847 109.811 33.5709C107.545 31.9463 105.022 30.279 103.098 29.2102C102.543 28.9109 102.072 28.6116 101.559 28.3124C99.5072 27.1153 97.7543 25.9609 95.5739 24.8066C95.1464 24.5929 94.7188 24.3363 94.2486 24.0798C92.2819 23.0965 90.187 22.0704 87.9639 21.0444C86.6386 20.4458 85.2705 19.8473 83.8596 19.2488C82.6198 18.7357 81.38 18.2227 80.0974 17.7097L79.9264 17.6669C79.2851 17.4104 78.601 17.1539 77.9597 16.8974C77.6605 16.7691 77.3612 16.6836 77.0619 16.5553C75.8221 16.0851 74.5395 15.6575 73.2569 15.1872C72.4874 14.9307 71.6751 14.6315 70.8628 14.4177L70.1787 14.2039L68.7679 13.7764C68.2549 13.6054 67.7418 13.4771 67.2288 13.3061C56.4978 10.0569 44.4843 7.7055 32.2142 7.23522C29.6491 7.14971 27.0839 7.14971 24.5187 7.32073C24.2622 7.32073 23.9629 7.36348 23.7064 7.36348C15.6689 7.96202 9.29873 9.92865 8.95671 13.4771V13.6909C8.95671 13.8619 8.95671 14.0757 8.95671 14.2467C8.99946 14.5032 9.04222 14.8025 9.08497 15.059C9.08497 15.1017 9.08497 15.1445 9.08497 15.1445C9.12772 15.2727 9.12772 15.401 9.17048 15.4865C9.17048 15.5293 9.17048 15.5293 9.17048 15.572C9.25598 15.8285 9.34149 16.0851 9.46975 16.3416C9.55525 16.5126 9.64076 16.6836 9.72626 16.8546C9.89727 17.1966 10.111 17.4959 10.3248 17.7952C10.5386 18.1372 10.7951 18.4792 11.0944 18.7785C11.1799 18.9067 11.2654 18.9922 11.3936 19.1205C11.5646 19.2915 11.7356 19.4625 11.8639 19.6763C11.9922 19.8901 12.2914 20.1038 12.5052 20.3176C12.5907 20.4031 12.719 20.5313 12.8045 20.6168C12.9327 20.7451 13.1037 20.9161 13.2747 21.0444L13.3175 21.0871C15.4551 22.84 17.8065 24.3363 20.2862 25.5762C17.1653 24.0371 13.9588 22.3697 11.0944 20.6596C9.5125 19.719 7.9734 18.7357 6.47705 17.6669C4.59593 16.3416 2.88581 14.7597 1.43222 12.9641C0.876432 11.8953 0.320646 10.6982 0.0641292 9.41561C-0.0213764 8.98808 -0.0213764 8.5178 0.0641292 8.04752C0.149635 7.66275 0.23514 7.32072 0.363399 6.9787C2.97132 1.03606 19.3029 -0.930566 34.1381 0.394771Z"
            fill="#E60012"
          />
          <path
            id="Vector_3"
            d="M102.799 28.3552H92.3247L90.9139 23.0538H102.799V21.7285H94.5051L93.0943 16.4271H102.799V14.7598L93.9066 15.7003L92.4957 10.5272L117.164 7.91931L115.711 13.3917L108.101 14.204V16.4271H117.72L116.309 21.6857H108.058V23.0111H119.344L117.934 28.3124H108.101V30.4928L106.732 35.4949H98.3101L97.1558 30.1935H102.756"
            fill="white"
          />
          <path
            id="Vector_4"
            d="M76.5917 25.2342L73.1715 29.6805L77.6605 35.4949H70.9911L69.8795 34.0413L68.7679 35.4949H62.0985L66.5448 29.6805L63.1246 25.2342C63.1246 25.2342 63.1246 18.0517 63.1246 18.18H61.842L60.3884 12.8359L63.1246 12.8786V8.68884H68.4259V12.8786H71.3758V11.083H76.6772V12.8786H79.3279L77.8315 18.18H76.5917M69.8367 25.3624L71.2903 23.4386V18.18H68.3831V23.4386L69.8367 25.3624ZM80.5677 25.5762H76.5917L75.1808 20.2749H80.6104V17.1967L83.3039 13.6909H77.6178L76.4634 9.41564H91.0849L89.9306 13.6909L86.6386 18.009L85.9118 18.9495V20.2321H91.2559L89.8023 25.5762H85.869V31.2196L84.7147 35.4949H78.1308L76.7199 30.1935H80.5249"
            fill="white"
          />
          <path
            id="Vector_5"
            d="M45.3822 13.7337H41.0214L42.0902 9.6294H36.8744L36.5323 10.9547L33.6679 21.5574H38.9265L39.6105 19.035H45.3394L45.3822 21.7712H37.5584L38.9693 27.0725H45.3394L45.3822 30.1935H34.8222L36.2331 35.4949H58.6783L60.1319 30.2363L50.6408 30.1935V27.0725H56.5407L57.9515 21.7712H50.6408V19.035H58.6356L60.0891 13.7337H50.6408V9.84317V8.68884H50.4698H45.5532H45.3394L45.3822 9.80042"
            fill="white"
          />
          <path
            id="Vector_6"
            d="M7.50313 13.9474H9.17049C9.17049 13.8619 9.17049 13.7764 9.17049 13.6909V13.5199C9.38425 11.2968 11.9494 9.71491 15.7544 8.68884H6.09229L7.50313 13.9474Z"
            fill="white"
          />
        </g>
      </g>
    </svg>
